<svg id="图层_1" data-name="图层 1" xmlns="http://www.w3.org/2000/svg" xmlns:xlink="http://www.w3.org/1999/xlink" viewBox="626.89 460.53 787.06 842.78"><defs><style>.cls-1{fill:url(#未命名的渐变_151);}.cls-2{fill:url(#未命名的渐变_207);}.cls-3{fill:url(#未命名的渐变_144);}.cls-4{fill:url(#未命名的渐变_162);}.cls-5{fill:url(#未命名的渐变_187);}.cls-6{fill:url(#未命名的渐变_179);}.cls-7{fill:url(#未命名的渐变_199);}.cls-8{fill:url(#未命名的渐变_204);}.cls-9{fill:url(#未命名的渐变_222);}.cls-10{fill:url(#未命名的渐变_148);}.cls-11{fill:url(#未命名的渐变_229);}.cls-12{fill:url(#未命名的渐变_172);}.cls-13{fill:url(#未命名的渐变_175);}.cls-14{fill:#b4ecf9;}.cls-15{fill:url(#未命名的渐变_201);}.cls-16{fill:url(#未命名的渐变_182);}.cls-17{fill:url(#未命名的渐变_234);}.cls-18{fill:url(#未命名的渐变_196);}.cls-19{fill:url(#未命名的渐变_239);}.cls-20{fill:url(#未命名的渐变_213);}</style><linearGradient id="未命名的渐变_151" x1="1010.89" y1="499.05" x2="1384.5" y2="872.17" gradientUnits="userSpaceOnUse"><stop offset="0" stop-color="#46b5fc"/><stop offset="1" stop-color="#a2e7fe"/></linearGradient><linearGradient id="未命名的渐变_207" x1="1231.73" y1="794.7" x2="1386.82" y2="742.07" gradientUnits="userSpaceOnUse"><stop offset="0" stop-color="#ade7fb"/><stop offset="0.42" stop-color="#9fe0fe"/><stop offset="1" stop-color="#8edcfa"/></linearGradient><linearGradient id="未命名的渐变_144" x1="830.53" y1="602.45" x2="1220.56" y2="788.65" gradientUnits="userSpaceOnUse"><stop offset="0" stop-color="#066bf9"/><stop offset="1" stop-color="#4dbdfd"/></linearGradient><linearGradient id="未命名的渐变_162" x1="813.41" y1="634.65" x2="1377.77" y2="1124.11" gradientUnits="userSpaceOnUse"><stop offset="0" stop-color="#29a9ff"/><stop offset="0.61" stop-color="#25a9fc"/></linearGradient><linearGradient id="未命名的渐变_187" x1="692.64" y1="806.23" x2="1207.86" y2="1049.42" gradientUnits="userSpaceOnUse"><stop offset="0.23" stop-color="#0465f2"/><stop offset="0.42" stop-color="#0256ee"/><stop offset="0.61" stop-color="#0145ce"/></linearGradient><linearGradient id="未命名的渐变_179" x1="601.69" y1="885.78" x2="1102.49" y2="1120.55" gradientUnits="userSpaceOnUse"><stop offset="0.22" stop-color="#26aefc"/><stop offset="0.37" stop-color="#36b0fd"/></linearGradient><linearGradient id="未命名的渐变_199" x1="646.46" y1="993.09" x2="1026.82" y2="1228.5" gradientUnits="userSpaceOnUse"><stop offset="0.05" stop-color="#0173f8"/><stop offset="0.5" stop-color="#1d99ef"/></linearGradient><linearGradient id="未命名的渐变_204" x1="1385.67" y1="1064.39" x2="1008.19" y2="1258.9" gradientUnits="userSpaceOnUse"><stop offset="0.05" stop-color="#3ea9ef"/><stop offset="0.54" stop-color="#38adfc"/><stop offset="0.95" stop-color="#2ca1f1"/></linearGradient><linearGradient id="未命名的渐变_222" x1="1184.89" y1="571.98" x2="1325.8" y2="722.84" gradientUnits="userSpaceOnUse"><stop offset="0.01" stop-color="#96dcfe"/><stop offset="0.22" stop-color="#9adefe"/><stop offset="0.45" stop-color="#a6e4fe"/><stop offset="0.67" stop-color="#bbeefd"/><stop offset="0.87" stop-color="#d4fafd"/></linearGradient><linearGradient id="未命名的渐变_148" x1="863.27" y1="559.54" x2="1027.52" y2="559.54" gradientUnits="userSpaceOnUse"><stop offset="0" stop-color="#37b3f9"/><stop offset="1" stop-color="#48b9fd"/></linearGradient><linearGradient id="未命名的渐变_229" x1="720.84" y1="650.24" x2="937.67" y2="792.38" gradientUnits="userSpaceOnUse"><stop offset="0" stop-color="#3bb0ff"/><stop offset="0.49" stop-color="#69c7ff"/><stop offset="0.79" stop-color="#98e3fa"/></linearGradient><linearGradient id="未命名的渐变_172" x1="651.98" y1="768.5" x2="840.18" y2="869.8" gradientUnits="userSpaceOnUse"><stop offset="0" stop-color="#0177fd"/><stop offset="0.91" stop-color="#0d84ff"/></linearGradient><linearGradient id="未命名的渐变_175" x1="877.54" y1="854.87" x2="1222.83" y2="1028.97" gradientUnits="userSpaceOnUse"><stop offset="0" stop-color="#087bfa"/><stop offset="0.78" stop-color="#42b7fc"/></linearGradient><linearGradient id="未命名的渐变_201" x1="838.49" y1="1099.15" x2="1072.95" y2="1247.26" gradientUnits="userSpaceOnUse"><stop offset="0.05" stop-color="#23a6ff"/><stop offset="0.76" stop-color="#69caff"/></linearGradient><linearGradient id="未命名的渐变_182" x1="814" y1="1047.39" x2="894.4" y2="905.06" gradientUnits="userSpaceOnUse"><stop offset="0.22" stop-color="#1295ff"/><stop offset="0.58" stop-color="#0263f2"/></linearGradient><linearGradient id="未命名的渐变_234" x1="1052.78" y1="1230.91" x2="984.49" y2="868.21" gradientUnits="userSpaceOnUse"><stop offset="0.16" stop-color="#b2ebfc"/><stop offset="0.21" stop-color="#9de1fd"/><stop offset="0.31" stop-color="#70cbfe"/><stop offset="0.4" stop-color="#50bbfe"/><stop offset="0.48" stop-color="#3cb1ff"/><stop offset="0.53" stop-color="#35aeff"/></linearGradient><linearGradient id="未命名的渐变_196" x1="1119.22" y1="1000.38" x2="1013.17" y2="1196.64" gradientUnits="userSpaceOnUse"><stop offset="0" stop-color="#128bf4"/><stop offset="0.12" stop-color="#25a1fb"/><stop offset="0.35" stop-color="#54baf8"/></linearGradient><linearGradient id="未命名的渐变_239" x1="1123.55" y1="704.77" x2="1314.29" y2="990.7" gradientUnits="userSpaceOnUse"><stop offset="0.11" stop-color="#72ceff"/><stop offset="0.72" stop-color="#b5edfe"/><stop offset="0.79" stop-color="#c2f2fd"/><stop offset="0.92" stop-color="#e5fdfa"/><stop offset="0.94" stop-color="#eafffa"/></linearGradient><linearGradient id="未命名的渐变_213" x1="1319.61" y1="1028.31" x2="1166.14" y2="1162.64" gradientUnits="userSpaceOnUse"><stop offset="0.1" stop-color="#8fdcfe"/><stop offset="0.65" stop-color="#a1e3fd"/></linearGradient></defs><title>资源 1</title><polygon class="cls-1" points="863.29 559.79 1227.54 739.78 1391.31 670.83 1027.52 480.53 863.29 559.79"/><polygon class="cls-2" points="1227.54 739.78 1227.54 865.85 1391.31 792.26 1391.31 670.83 1227.54 739.78"/><polygon class="cls-3" points="863.29 559.79 825.87 576.42 826.3 625.42 1227.54 850.29 1227.54 739.78 863.29 559.79"/><polygon class="cls-4" points="646.9 701.24 1240.94 1004.36 1393.95 927.15 826.23 617.1 646.9 701.24"/><polygon class="cls-5" points="646.9 701.24 646.9 837 1206.27 1132.07 1216.62 991.95 646.9 701.24"/><polygon class="cls-6" points="782.35 908.85 646.9 966.53 1094.29 1178.32 1199.17 1131.11 782.35 908.85"/><polygon class="cls-7" points="646.9 966.53 646.89 1085.3 1010.66 1278.49 1094.29 1178.32 646.9 966.53"/><polygon class="cls-8" points="1393.95 1074.4 1192.76 1132.85 1094.29 1178.32 1019.71 1283.31 1270.88 1159.76 1393.95 1074.4"/><polygon class="cls-9" points="1177.13 558.79 1227.54 739.78 1391.31 670.83 1177.13 558.79"/><polygon class="cls-10" points="1027.52 480.53 1022.67 638.55 863.27 559.8 1027.52 480.53"/><polygon class="cls-11" points="823.78 618.27 646.9 701.24 853.35 805.5 823.78 618.27"/><path class="cls-12" d="M860.72,809.22l-46.85,87.89a26.44,26.44,0,0,1-35.93,10.82L646.9,837V701.24Z"/><path class="cls-13" d="M860.72,809.22l-9.15,17.17A31.28,31.28,0,0,0,864,868.48l344.11,190.26.11-71.09Z"/><polygon class="cls-14" points="1393.95 1074.4 1393.95 927.15 1229.98 1003.96 1393.95 1074.4"/><polygon class="cls-15" points="817.06 1047.08 893.04 1216.03 1019.71 1283.31 1094.29 1178.32 817.06 1047.08"/><path class="cls-16" d="M780,907.63s7,111.29,38.07,131,136.1-39.5,136.1-39.5Z"/><polygon class="cls-17" points="831.16 1053.93 1033.11 961.87 1208.26 1056.61 1191.62 1131.88 1094.29 1178.32 831.16 1053.93"/><polygon class="cls-18" points="1033.11 961.87 982.43 984.97 1192.76 1132.85 1208.26 1056.61 1033.11 961.87"/><polygon class="cls-19" points="1049.35 738.95 1208.22 1014.66 1393.95 927.15 1049.35 738.95"/><polygon class="cls-20" points="1208.22 1014.66 1230.52 1004.19 1393.95 1074.4 1191.62 1133.3 1208.22 1014.66"/></svg>